<svg width="1474" height="355" viewBox="0 0 1474 355" fill="none" xmlns="http://www.w3.org/2000/svg">
<path fill-rule="evenodd" clip-rule="evenodd" d="M273.374 265.985C346.824 265.985 406.367 206.442 406.367 132.993C406.367 59.5428 346.824 0 273.374 0C272.139 0 270.907 0.0168499 269.68 0.0503325V4.57764e-05L206.878 0H140.382V132.993V354.647H206.878V265.985H269.68V265.935C270.907 265.968 272.139 265.985 273.374 265.985ZM273.375 199.489C309.582 199.489 338.934 169.718 338.934 132.993C338.934 96.2678 309.582 66.4964 273.375 66.4964H273.374H206.878V199.489H273.374H273.375ZM539.359 354.646C563.583 354.646 586.294 348.17 605.855 336.854V354.647H672.352V88.6615H605.855V106.454C586.294 95.1378 563.583 88.6613 539.359 88.6613C465.909 88.6613 406.366 148.204 406.366 221.654C406.366 295.104 465.909 354.646 539.359 354.646ZM605.855 221.653C605.855 258.378 576.083 288.15 539.359 288.15C502.634 288.15 472.862 258.378 472.862 221.653C472.862 184.929 502.634 155.157 539.359 155.157C576.083 155.157 605.855 184.929 605.855 221.653ZM953.114 0H886.618V106.454C867.056 95.1378 844.345 88.6613 820.121 88.6613C746.671 88.6613 687.129 148.204 687.129 221.654C687.129 295.104 746.671 354.646 820.121 354.646C844.345 354.646 867.056 348.17 886.618 336.854V354.647H953.114V0ZM886.618 221.765C886.558 258.439 856.809 288.15 820.122 288.15C783.397 288.15 753.625 258.378 753.625 221.653C753.625 184.929 783.397 155.157 820.122 155.157C856.809 155.157 886.558 184.868 886.618 221.542V221.765ZM1045.47 0H978.973V354.647H1045.47V0ZM1328.63 244.013C1321.88 283.427 1297.55 319.647 1260.2 338.679C1191.87 373.497 1111.78 347.476 1079.91 284.922C1045.09 216.587 1071.11 136.503 1139.45 101.684C1202 69.8116 1282.09 95.8327 1316.9 164.167C1320.39 171.017 1323.19 178.077 1325.32 185.261L1258.05 219.538L1258.05 219.539L1154.12 272.494C1174.08 289.123 1203.28 293.052 1229.94 279.465C1251.05 268.713 1263.74 245.605 1263.52 221.434L1328.63 244.013ZM1130.64 226.413L1239.84 170.771C1220.14 154.006 1192 149.538 1169.57 160.968C1142.9 174.555 1128.92 200.488 1130.64 226.413ZM88.6617 262.291C88.6617 286.774 68.8141 306.622 44.3308 306.622C19.8476 306.622 0 286.774 0 262.291C0 237.808 19.8476 217.96 44.3308 217.96C68.8141 217.96 88.6617 237.808 88.6617 262.291ZM44.3308 140.381C68.8141 140.381 88.6617 120.533 88.6617 96.0502C88.6617 71.5669 68.8141 51.7193 44.3308 51.7193C19.8476 51.7193 0 71.5669 0 96.0502C0 120.533 19.8476 140.381 44.3308 140.381ZM1348.4 0H1414.87V110.828H1466.58V177.324H1414.87V354.647H1348.4V0Z" fill="#FF4081"/>
<mask id="mask0_89_2" style="mask-type:luminance" maskUnits="userSpaceOnUse" x="0" y="0" width="1467" height="355">
<path fill-rule="evenodd" clip-rule="evenodd" d="M273.374 265.985C346.824 265.985 406.367 206.442 406.367 132.993C406.367 59.5428 346.824 0 273.374 0C272.139 0 270.907 0.0168499 269.68 0.0503325V4.57764e-05L206.878 0H140.382V132.993V354.647H206.878V265.985H269.68V265.935C270.907 265.968 272.139 265.985 273.374 265.985ZM273.375 199.489C309.582 199.489 338.934 169.718 338.934 132.993C338.934 96.2678 309.582 66.4964 273.375 66.4964H273.374H206.878V199.489H273.374H273.375ZM539.359 354.646C563.583 354.646 586.294 348.17 605.855 336.854V354.647H672.352V88.6615H605.855V106.454C586.294 95.1378 563.583 88.6613 539.359 88.6613C465.909 88.6613 406.366 148.204 406.366 221.654C406.366 295.104 465.909 354.646 539.359 354.646ZM605.855 221.653C605.855 258.378 576.083 288.15 539.359 288.15C502.634 288.15 472.862 258.378 472.862 221.653C472.862 184.929 502.634 155.157 539.359 155.157C576.083 155.157 605.855 184.929 605.855 221.653ZM953.114 0H886.618V106.454C867.056 95.1378 844.345 88.6613 820.121 88.6613C746.671 88.6613 687.129 148.204 687.129 221.654C687.129 295.104 746.671 354.646 820.121 354.646C844.345 354.646 867.056 348.17 886.618 336.854V354.647H953.114V0ZM886.618 221.765C886.558 258.439 856.809 288.15 820.122 288.15C783.397 288.15 753.625 258.378 753.625 221.653C753.625 184.929 783.397 155.157 820.122 155.157C856.809 155.157 886.558 184.868 886.618 221.542V221.765ZM1045.47 0H978.973V354.647H1045.47V0ZM1328.63 244.013C1321.88 283.427 1297.55 319.647 1260.2 338.679C1191.87 373.497 1111.78 347.476 1079.91 284.922C1045.09 216.587 1071.11 136.503 1139.45 101.684C1202 69.8116 1282.09 95.8327 1316.9 164.167C1320.39 171.017 1323.19 178.077 1325.32 185.261L1258.05 219.538L1258.05 219.539L1154.12 272.494C1174.08 289.123 1203.28 293.052 1229.94 279.465C1251.05 268.713 1263.74 245.605 1263.52 221.434L1328.63 244.013ZM1130.64 226.413L1239.84 170.771C1220.14 154.006 1192 149.538 1169.57 160.968C1142.9 174.555 1128.92 200.488 1130.64 226.413ZM88.6617 262.291C88.6617 286.774 68.8141 306.622 44.3308 306.622C19.8476 306.622 0 286.774 0 262.291C0 237.808 19.8476 217.96 44.3308 217.96C68.8141 217.96 88.6617 237.808 88.6617 262.291ZM44.3308 140.381C68.8141 140.381 88.6617 120.533 88.6617 96.0502C88.6617 71.5669 68.8141 51.7193 44.3308 51.7193C19.8476 51.7193 0 71.5669 0 96.0502C0 120.533 19.8476 140.381 44.3308 140.381ZM1348.4 0H1414.87V110.828H1466.58V177.324H1414.87V354.647H1348.4V0Z" fill="white"/>
</mask>
<g mask="url(#mask0_89_2)">
<path fill-rule="evenodd" clip-rule="evenodd" d="M1071.74 402.867C1262.51 402.867 1417.16 248.456 1417.16 57.9807C1417.16 -132.495 1262.51 -286.906 1071.74 -286.906C880.979 -286.906 726.333 -132.495 726.333 57.9807C726.333 248.456 880.979 402.867 1071.74 402.867Z" fill="#53E047"/>
<path fill-rule="evenodd" clip-rule="evenodd" d="M532.613 401.072C681.851 401.072 802.832 280.499 802.832 131.765C802.832 -16.9696 681.851 -137.542 532.613 -137.542C383.376 -137.542 262.395 -16.9696 262.395 131.765C262.395 280.499 383.376 401.072 532.613 401.072Z" fill="#9466E8"/>
<path fill-rule="evenodd" clip-rule="evenodd" d="M776.47 360.587C829.517 360.587 872.52 299.391 872.52 223.901C872.52 148.411 829.517 87.2139 776.47 87.2139C723.423 87.2139 680.419 148.411 680.419 223.901C680.419 299.391 723.423 360.587 776.47 360.587Z" fill="#FF4081"/>
<path fill-rule="evenodd" clip-rule="evenodd" d="M480.74 260.914C615.667 260.914 725.047 151.903 725.047 17.4313C725.047 -117.041 615.667 -226.052 480.74 -226.052C345.812 -226.052 236.432 -117.041 236.432 17.4313C236.432 151.903 345.812 260.914 480.74 260.914Z" fill="#FEC006"/>
<path fill-rule="evenodd" clip-rule="evenodd" d="M899.608 194.662C1058.75 194.662 1187.76 65.824 1187.76 -93.1056C1187.76 -252.035 1058.75 -380.873 899.608 -380.873C740.467 -380.873 611.458 -252.035 611.458 -93.1056C611.458 65.824 740.467 194.662 899.608 194.662Z" fill="#3992DE"/>
<path fill-rule="evenodd" clip-rule="evenodd" d="M1043.42 1150.05C1298.97 1150.05 1506.13 943.592 1506.13 688.91C1506.13 434.228 1298.97 227.768 1043.42 227.768C787.88 227.768 580.721 434.228 580.721 688.91C580.721 943.592 787.88 1150.05 1043.42 1150.05Z" fill="#FF833E"/>
<path fill-rule="evenodd" clip-rule="evenodd" d="M1502.44 164.966C1757.99 164.966 1965.15 -41.4943 1965.15 -296.176C1965.15 -550.858 1757.99 -757.318 1502.44 -757.318C1246.9 -757.318 1039.74 -550.858 1039.74 -296.176C1039.74 -41.4943 1246.9 164.966 1502.44 164.966Z" fill="#FEC006"/>
<path fill-rule="evenodd" clip-rule="evenodd" d="M1798.59 703.58C2054.13 703.58 2261.29 497.119 2261.29 242.438C2261.29 -12.2442 2054.13 -218.705 1798.59 -218.705C1543.04 -218.705 1335.88 -12.2442 1335.88 242.438C1335.88 497.119 1543.04 703.58 1798.59 703.58Z" fill="#FEC006"/>
</g>
</svg>
